<?xml version="1.0" encoding="utf-8"?>
<!-- Generator: Adobe Illustrator 26.0.0, SVG Export Plug-In . SVG Version: 6.00 Build 0)  -->
<svg version="1.1" id="Layer_1" xmlns="http://www.w3.org/2000/svg" xmlns:xlink="http://www.w3.org/1999/xlink" x="0px" y="0px"
	 viewBox="0 0 1516.64 500" style="enable-background:new 0 0 1516.64 500;" xml:space="preserve">
<style type="text/css">
	.st0{fill:none;stroke:#F5B51B;stroke-width:8;stroke-miterlimit:10;}
	.st1{fill:#666666;}
	.st2{fill:none;stroke:#FF0000;stroke-miterlimit:10;}
	.st3{display:none;}
	.st4{display:inline;fill:#666666;}
	.st5{fill:#003866;}
	.st6{fill:none;stroke:#FFFFFF;stroke-width:10;stroke-miterlimit:10;}
	.st7{fill:#FFFFFF;}
	.st8{fill:none;stroke:#F5B51B;stroke-width:10;stroke-miterlimit:10;}
	.st9{fill:#F5B51B;}
	.st10{fill:none;stroke:#F5B51B;stroke-width:15;stroke-miterlimit:10;}
</style>
<g>
	<g>
		<circle class="st0" cx="-1321.62" cy="-1698.95" r="17.59"/>
		<line class="st0" x1="-1333.7" y1="-1687.37" x2="-1361.65" y2="-1660.35"/>
	</g>
	<circle class="st0" cx="-1388.87" cy="-1631.71" r="15.8"/>
	<g>
		<circle class="st0" cx="-1297.86" cy="-1548.44" r="25.86"/>
		<line class="st0" x1="-1319.53" y1="-1562.56" x2="-1364.75" y2="-1608.07"/>
	</g>
	<g>
		<circle class="st0" cx="-1448.39" cy="-1579.55" r="17.59"/>
		<line class="st0" x1="-1436.32" y1="-1591.13" x2="-1416.78" y2="-1607.54"/>
	</g>
	<g>
		<circle class="st0" cx="-1441.13" cy="-1688.65" r="11.17"/>
		<line class="st0" x1="-1434" y1="-1681.38" x2="-1413.51" y2="-1660.35"/>
	</g>
</g>
<text transform="matrix(1 0 0 1 -1400.4021 -1179.111)" class="st3" style="font-family:'Poppins-Medium'; font-size:50px;">Plan Execute Review Improve</text>
<text transform="matrix(1 0 0 1 -1339.2137 -1172.4523)" class="st1" style="font-family:'Poppins-Light'; font-size:45px; letter-spacing:3;">Agile your work</text>
<g>
	<path class="st1" d="M-1183.02-1541.2h-14.31l-2.74,7.47h-3.33l11.47-31.05h3.55l11.43,31.05h-3.33L-1183.02-1541.2z
		 M-1190.18-1560.82l-6.21,17.01h12.42L-1190.18-1560.82z"/>
	<path class="st1" d="M-1158.45-1558.66c4.86,0,8.32,2.61,9.72,5.71v-5.36h3.15v25.2c0,6.88-4.72,11.43-11.47,11.43
		c-6.34,0-10.75-3.24-11.74-8.37h3.1c1.04,3.33,4.14,5.62,8.64,5.62c4.68,0,8.32-3.1,8.32-8.68v-6.07c-1.44,3.15-4.86,5.8-9.72,5.8
		c-6.75,0-11.74-5-11.74-12.69C-1170.2-1553.76-1165.2-1558.66-1158.45-1558.66z M-1157.87-1555.92c-5.17,0-9.13,3.6-9.13,9.86
		c0,6.21,3.96,9.94,9.13,9.94c5.04,0,9.13-3.78,9.13-9.9C-1148.73-1552.14-1152.83-1555.92-1157.87-1555.92z"/>
	<path class="st1" d="M-1135.95-1565.28c0-1.35,1.04-2.29,2.29-2.29s2.29,0.95,2.29,2.29c0,1.35-1.04,2.34-2.29,2.34
		S-1135.95-1563.93-1135.95-1565.28z M-1135.23-1558.3h3.15v24.57h-3.15V-1558.3z"/>
	<path class="st1" d="M-1121.78-1567.03h3.15v33.3h-3.15V-1567.03z"/>
	<path class="st1" d="M-1097.71-1533.37c-6.97,0-12.06-4.86-12.06-12.64c0-7.83,5-12.64,12.06-12.64c7.2,0,11.61,5.13,11.61,11.38
		c0,0.99,0,1.62-0.09,2.48h-20.38c0.27,5.76,4.27,8.77,8.86,8.77c4.18,0,7.02-2.21,7.92-5.49h3.33
		C-1087.58-1536.88-1091.54-1533.37-1097.71-1533.37z M-1106.57-1547.37h17.28c0.13-5.71-4-8.59-8.55-8.59
		C-1102.3-1555.96-1106.21-1553.08-1106.57-1547.37z"/>
	<path class="st1" d="M-1044.7-1558.3h3.24l-14.58,36.13h-3.29l4.77-11.7l-10.08-24.43h3.46l8.37,20.97L-1044.7-1558.3z"/>
	<path class="st1" d="M-1023.28-1533.37c-6.93,0-12.19-4.86-12.19-12.64c0-7.83,5.4-12.64,12.28-12.64
		c6.93,0,12.29,4.81,12.29,12.64C-1010.9-1538.23-1016.35-1533.37-1023.28-1533.37z M-1023.28-1536.12c4.63,0,9.13-3.15,9.13-9.9
		c0-6.75-4.41-9.9-9.09-9.9s-9.04,3.15-9.04,9.9C-1032.28-1539.27-1027.96-1536.12-1023.28-1536.12z"/>
	<path class="st1" d="M-980.71-1533.73h-3.15v-4.32c-1.49,3.11-4.73,4.73-8.37,4.73c-5.58,0-9.99-3.42-9.99-10.62v-14.35h3.1v14
		c0,5.44,2.97,8.23,7.47,8.23c4.59,0,7.79-2.88,7.79-8.86v-13.37h3.15V-1533.73z"/>
	<path class="st1" d="M-967.21-1533.73h-3.15v-24.57h3.15v4.37c1.35-3.01,4.18-4.81,8.41-4.81v3.28h-0.85
		c-4.09,0-7.56,1.84-7.56,8.01V-1533.73z"/>
	<path class="st1" d="M-938.36-1558.3h3.2l6.12,21.37l6.88-21.37h3.15l6.79,21.42l6.07-21.42h3.11l-7.7,24.57h-3.15l-6.79-20.61
		l-6.79,20.61h-3.19L-938.36-1558.3z"/>
	<path class="st1" d="M-884.86-1533.37c-6.93,0-12.19-4.86-12.19-12.64c0-7.83,5.4-12.64,12.28-12.64c6.93,0,12.28,4.81,12.28,12.64
		C-872.48-1538.23-877.93-1533.37-884.86-1533.37z M-884.86-1536.12c4.63,0,9.13-3.15,9.13-9.9c0-6.75-4.41-9.9-9.09-9.9
		s-9.04,3.15-9.04,9.9C-893.86-1539.27-889.54-1536.12-884.86-1536.12z"/>
	<path class="st1" d="M-860.42-1533.73h-3.15v-24.57h3.15v4.37c1.35-3.01,4.18-4.81,8.41-4.81v3.28h-0.85
		c-4.09,0-7.56,1.84-7.56,8.01V-1533.73z"/>
	<path class="st1" d="M-844.13-1567.03h3.15v19.71l9.9-10.98h4.41l-11.66,12.24l11.75,12.33h-4.28l-10.12-11.02v11.02h-3.15
		V-1567.03z"/>
</g>
<g>
	<line class="st2" x1="-4487.37" y1="-1394.64" x2="-4487.37" y2="-1035.58"/>
	<line class="st2" x1="-4505.25" y1="-1394.64" x2="-4505.25" y2="-1035.58"/>
	<line class="st2" x1="-4448.78" y1="-1396.41" x2="-4448.78" y2="-1037.35"/>
	<line class="st2" x1="-4322.19" y1="-1396.41" x2="-4322.19" y2="-1037.35"/>
	<line class="st2" x1="-4344.78" y1="-1396.41" x2="-4344.78" y2="-1037.35"/>
	<line class="st2" x1="-4576.31" y1="-1360.64" x2="-4217.25" y2="-1360.64"/>
	<line class="st2" x1="-4576.31" y1="-1349.35" x2="-4217.25" y2="-1349.35"/>
	<line class="st2" x1="-4576.31" y1="-1222.52" x2="-4217.25" y2="-1222.52"/>
	<line class="st2" x1="-4576.31" y1="-1320.17" x2="-4217.25" y2="-1320.17"/>
	<line class="st2" x1="-4576.31" y1="-1159.7" x2="-4217.25" y2="-1159.7"/>
	<line class="st2" x1="-4576.31" y1="-1211.23" x2="-4217.25" y2="-1211.23"/>
</g>
<g>
	<g class="st3">
		<path class="st4" d="M-1184.32-1540.63H-1198l-2.52,6.97h-4.32l11.34-31.18h4.72l11.29,31.18h-4.32L-1184.32-1540.63z
			 M-1191.16-1559.8l-5.67,15.84h11.34L-1191.16-1559.8z"/>
		<path class="st4" d="M-1159.21-1558.72c4.5,0,7.74,2.25,9.18,4.91v-4.5h4.14v25.2c0,6.79-4.54,11.61-11.79,11.61
			c-6.48,0-11.11-3.29-11.92-8.55h4.05c0.9,2.97,3.83,5,7.88,5c4.36,0,7.65-2.79,7.65-8.05v-5.17c-1.48,2.66-4.68,5.04-9.18,5.04
			c-6.61,0-11.7-5.17-11.7-12.83C-1170.91-1553.77-1165.83-1558.72-1159.21-1558.72z M-1158.4-1555.16c-4.5,0-8.32,3.28-8.32,9.09
			c0,5.81,3.83,9.22,8.32,9.22c4.5,0,8.37-3.37,8.37-9.18C-1150.03-1551.74-1153.9-1555.16-1158.4-1555.16z"/>
		<path class="st4" d="M-1136.49-1565.11c0-1.57,1.21-2.79,2.79-2.79c1.49,0,2.7,1.21,2.7,2.79c0,1.58-1.21,2.79-2.7,2.79
			C-1135.27-1562.32-1136.49-1563.53-1136.49-1565.11z M-1135.81-1558.31h4.09v24.66h-4.09V-1558.31z"/>
		<path class="st4" d="M-1121.59-1566.95h4.09v33.3h-4.09V-1566.95z"/>
		<path class="st4" d="M-1096.71-1533.25c-7.02,0-12.19-4.95-12.19-12.78c0-7.79,5-12.69,12.19-12.69c7.16,0,11.83,5.04,11.83,11.79
			c0,0.9-0.04,1.62-0.13,2.47h-19.71c0.32,5,3.83,7.74,8.01,7.74c3.69,0,6.03-1.89,6.93-4.54h4.41
			C-1086.63-1536.76-1090.59-1533.25-1096.71-1533.25z M-1104.67-1547.78h15.57c0.05-4.81-3.55-7.47-7.78-7.47
			C-1100.89-1555.25-1104.22-1552.6-1104.67-1547.78z"/>
		<path class="st4" d="M-1044.15-1558.31h4.23l-14.85,36.27h-4.23l4.86-11.88l-9.94-24.39h4.54l7.74,19.98L-1044.15-1558.31z"/>
		<path class="st4" d="M-1021.92-1533.25c-6.97,0-12.28-4.95-12.28-12.78c0-7.79,5.49-12.69,12.46-12.69
			c7.02,0,12.46,4.91,12.46,12.69C-1009.27-1538.2-1014.9-1533.25-1021.92-1533.25z M-1021.92-1536.85c4.28,0,8.46-2.92,8.46-9.18
			c0-6.21-4.09-9.13-8.32-9.13c-4.32,0-8.24,2.92-8.24,9.13C-1030.02-1539.77-1026.19-1536.85-1021.92-1536.85z"/>
		<path class="st4" d="M-978.85-1533.65h-4.09v-3.64c-1.58,2.56-4.59,4-7.88,4c-5.67,0-10.12-3.51-10.12-10.58v-14.44h4.05v13.9
			c0,5,2.75,7.56,6.88,7.56c4.23,0,7.07-2.61,7.07-7.92v-13.54h4.09V-1533.65z"/>
		<path class="st4" d="M-964.68-1533.65h-4.09v-24.66h4.09v4c1.4-2.75,4.05-4.46,7.96-4.46v4.23h-1.08c-3.92,0-6.88,1.75-6.88,7.47
			V-1533.65z"/>
		<path class="st4" d="M-936.6-1558.31h4.18l5.67,20.7l6.12-20.7h4.18l5.98,20.74l5.58-20.74h4.05l-7.69,24.66h-4.23l-5.94-19.57
			l-5.94,19.57h-4.23L-936.6-1558.31z"/>
		<path class="st4" d="M-882.87-1533.25c-6.97,0-12.29-4.95-12.29-12.78c0-7.79,5.49-12.69,12.46-12.69
			c7.02,0,12.46,4.91,12.46,12.69C-870.22-1538.2-875.85-1533.25-882.87-1533.25z M-882.87-1536.85c4.27,0,8.46-2.92,8.46-9.18
			c0-6.21-4.09-9.13-8.32-9.13c-4.32,0-8.23,2.92-8.23,9.13C-890.97-1539.77-887.14-1536.85-882.87-1536.85z"/>
		<path class="st4" d="M-857.58-1533.65h-4.09v-24.66h4.09v4c1.4-2.75,4.05-4.46,7.96-4.46v4.23h-1.08c-3.92,0-6.88,1.75-6.88,7.47
			V-1533.65z"/>
		<path class="st4" d="M-841.74-1566.95h4.09v19.57l9.5-10.93h5.71l-11.61,12.29l11.66,12.37h-5.58l-9.67-10.89v10.89h-4.09
			V-1566.95z"/>
	</g>
	<g>
		<path class="st5" d="M-1207.5-1608.86"/>
		<path class="st5" d="M-1207.5-1695.72"/>
		<line class="st5" x1="-1177.32" y1="-1711.51" x2="-1177.32" y2="-1643.69"/>
		<g>
			<path class="st5" d="M-1120.39-1705.9l-7.08-5.61c-6.2-3.88-13.53-6.11-21.38-6.11h-58.65v6.11c6.15,6.9,9.58,15.8,9.62,25.04
				l0.05,11.26v66.35l-0.21,1.15c-0.6,3.32-1.72,6.51-3.32,9.43s-3.67,5.59-6.15,7.89v4.45h41.01v-5.22l-0.08-0.08
				c-2.4-2.48-4.49-5.24-6.23-8.19c-1.74-2.96-3.13-6.12-4.14-9.43v-27.89h28.09c2.8,0,5.53-0.29,8.17-0.83
				c5.27-1.08,10.18-3.19,14.48-6.11l5.81-4.78c7.39-7.32,11.97-17.48,11.97-28.71v-0.01
				C-1108.42-1688.42-1112.99-1698.58-1120.39-1705.9z M-1120.39-1677.6c0,9.36-3.79,17.84-9.93,23.98
				c-6.14,6.14-14.61,9.93-23.98,9.93h-23.02v-67.82h24.22c18.07,0,32.71,14.65,32.71,32.71V-1677.6z"/>
		</g>
		<path class="st5" d="M-883.27-1592.56c-1.73,0-3.39-0.73-4.55-2.02l-15.37-16.97l-14.71-16.25l-3.54-3.91
			c-2.05-2.26-4.77-3.81-7.77-4.4l-3.24-0.64h1.75c2.8,0,5.53-0.29,8.17-0.83c5.27-1.08,10.18-3.19,14.48-6.11l5.81-4.78
			c7.39-7.32,11.97-17.48,11.97-28.71v-0.01c0-11.23-4.58-21.39-11.97-28.71l-7.08-5.61c-6.2-3.88-13.53-6.11-21.38-6.11h-58.65
			v6.11c6.15,6.9,9.58,15.8,9.62,25.04l0.05,11.26v31.25h-59.51c-4.07,0-7.29,3.45-6.99,7.51l0.7,9.93
			c0.11,1.46,1.33,2.59,2.79,2.58c0.93-0.01,1.85-0.18,2.71-0.5c0.86-0.32,1.67-0.8,2.38-1.4c2.22-1.89,4.52-3.43,6.88-4.87
			c2.36-1.45,4.79-2.79,7.28-4.33c0.9-0.55,1.87-0.98,2.88-1.26c1.01-0.29,2.05-0.43,3.11-0.43h37.76v27.88l-0.21,1.15
			c-0.6,3.32-1.72,6.51-3.32,9.43c-1.6,2.92-3.67,5.59-6.15,7.89v4.45h41.01v-5.22l-0.08-0.08c-2.4-2.48-4.49-5.24-6.23-8.19
			c-1.74-2.96-3.13-6.12-4.14-9.43v-27.89h12.68l1.76,1.97l26.45,29.63v3.45c0,0.27,0.22,0.48,0.48,0.48c0.27,0,0.48,0.21,0.48,0.48
			l0.14,7.56c0.01,0.27-0.21,0.49-0.48,0.49h-0.14c-0.27,0.01-0.48,0.22-0.48,0.48v6.27h35.59v-6.63H-883.27z M-959.15-1643.69
			v-67.82h24.22c18.07,0,32.71,14.65,32.71,32.71v1.2c0,9.36-3.79,17.84-9.93,23.98c-6.14,6.14-14.61,9.93-23.98,9.93H-959.15z"/>
		<path class="st5" d="M-836.83-1675.21v66.35l0.21,1.15c0.6,3.32,1.72,6.51,3.32,9.43c1.6,2.92,3.67,5.59,6.15,7.89v4.45h-40.68
			v-4.45c2.48-2.3,4.55-4.96,6.15-7.89c1.6-2.92,2.73-6.11,3.32-9.43l0.21-1.15v-66.35l-0.05-11.26
			c-0.05-9.24-3.47-18.14-9.62-25.04v-6.11h40.68v6.11c-6.15,6.9-9.58,15.8-9.62,25.04L-836.83-1675.21z"/>
		<rect x="-958.77" y="-1636.75" class="st5" width="6.84" height="0.01"/>
		<path class="st5" d="M-1020.2-1636.47"/>
		<path class="st5" d="M-1040.19-1708.48h-22.45l0.07,114.08h24.08l5.14-1.56c9.46-2.88,18.27-7.55,25.97-13.75h8.12v23.78h-93.86
			v-4.45c2.48-2.3,4.55-4.96,6.15-7.89c1.6-2.92,2.73-6.11,3.32-9.43l0.21-1.15v-66.35l-0.05-11.26
			c-0.05-9.24-3.47-18.14-9.62-25.04v-6.11h94.34v23.79h-8.41l-0.26-0.22c-8.93-7.29-19.59-12.16-30.95-14.12L-1040.19-1708.48z"/>
		<path class="st5" d="M-999.27-1693.17"/>
		<path class="st5" d="M-999.27-1609.72"/>
		<path class="st5" d="M-1007.87-1609.72"/>
	</g>
</g>
<g>
	<g>
		<circle class="st6" cx="345.56" cy="73.14" r="40.17"/>
		<line class="st6" x1="318" y1="99.59" x2="254.18" y2="161.28"/>
	</g>
	<circle class="st6" cx="192.03" cy="226.68" r="36.06"/>
	<g>
		<circle class="st6" cx="399.81" cy="416.8" r="59.05"/>
		<line class="st6" x1="350.34" y1="384.56" x2="247.09" y2="280.64"/>
	</g>
	<g>
		<circle class="st6" cx="56.12" cy="345.77" r="40.17"/>
		<line class="st6" x1="83.68" y1="319.32" x2="128.29" y2="281.87"/>
	</g>
	<g>
		<circle class="st6" cx="72.7" cy="96.66" r="25.5"/>
		<line class="st6" x1="88.98" y1="113.27" x2="135.77" y2="161.28"/>
	</g>
</g>
<g>
	<path class="st7" d="M662.02,433.33h-32.67l-6.27,17.06h-7.6l26.2-70.89h8.12l26.1,70.89h-7.6L662.02,433.33z M645.68,388.53
		l-14.18,38.84h28.36L645.68,388.53z"/>
	<path class="st7" d="M718.12,393.46c11.1,0,19.01,5.96,22.19,13.05v-12.23h7.19v57.54c0,15.72-10.79,26.1-26.2,26.1
		c-14.49,0-24.55-7.4-26.82-19.11h7.09c2.36,7.6,9.45,12.84,19.73,12.84c10.68,0,19.01-7.09,19.01-19.83v-13.87
		c-3.29,7.19-11.1,13.25-22.19,13.25c-15.41,0-26.82-11.41-26.82-28.97C691.3,404.66,702.71,393.46,718.12,393.46z M719.45,399.73
		c-11.82,0-20.86,8.22-20.86,22.5c0,14.18,9.04,22.71,20.86,22.71c11.51,0,20.86-8.63,20.86-22.6
		C740.31,408.36,730.96,399.73,719.45,399.73z"/>
	<path class="st7" d="M769.49,378.36c0-3.08,2.36-5.24,5.24-5.24c2.88,0,5.24,2.16,5.24,5.24c0,3.08-2.36,5.34-5.24,5.34
		C771.85,383.7,769.49,381.44,769.49,378.36z M771.14,394.28h7.19v56.1h-7.19V394.28z"/>
	<path class="st7" d="M801.85,374.35h7.19v76.03h-7.19V374.35z"/>
	<path class="st7" d="M856.82,451.2c-15.92,0-27.53-11.1-27.53-28.87c0-17.88,11.41-28.87,27.53-28.87
		c16.44,0,26.51,11.71,26.51,25.99c0,2.26,0,3.7-0.21,5.65h-46.54c0.62,13.15,9.76,20.03,20.24,20.03c9.55,0,16.03-5.03,18.08-12.54
		h7.6C879.94,443.19,870.9,451.2,856.82,451.2z M836.58,419.25h39.45c0.31-13.05-9.14-19.62-19.52-19.62
		C846.34,399.63,837.4,406.2,836.58,419.25z"/>
	<path class="st7" d="M977.85,394.28h7.4l-33.29,82.5h-7.5l10.89-26.71l-23.01-55.79h7.91l19.11,47.88L977.85,394.28z"/>
	<path class="st7" d="M1026.76,451.2c-15.82,0-27.84-11.1-27.84-28.87c0-17.88,12.33-28.87,28.05-28.87
		c15.82,0,28.05,10.99,28.05,28.87C1055.02,440.11,1042.58,451.2,1026.76,451.2z M1026.76,444.94c10.58,0,20.86-7.19,20.86-22.6
		c0-15.41-10.07-22.61-20.75-22.61c-10.68,0-20.65,7.19-20.65,22.61C1006.21,437.74,1016.08,444.94,1026.76,444.94z"/>
	<path class="st7" d="M1123.96,450.38h-7.19v-9.86c-3.39,7.09-10.79,10.79-19.11,10.79c-12.74,0-22.81-7.81-22.81-24.25v-32.77h7.09
		v31.95c0,12.43,6.78,18.8,17.06,18.8c10.48,0,17.78-6.58,17.78-20.24v-30.52h7.19V450.38z"/>
	<path class="st7" d="M1154.78,450.38h-7.19v-56.1h7.19v9.97c3.08-6.88,9.55-10.99,19.21-10.99v7.5h-1.95
		c-9.35,0-17.26,4.21-17.26,18.29V450.38z"/>
	<path class="st7" d="M1220.64,394.28h7.3l13.97,48.8l15.72-48.8h7.19l15.51,48.91l13.87-48.91h7.09l-17.57,56.1h-7.19l-15.51-47.06
		l-15.51,47.06h-7.29L1220.64,394.28z"/>
	<path class="st7" d="M1342.81,451.2c-15.82,0-27.84-11.1-27.84-28.87c0-17.88,12.33-28.87,28.05-28.87
		c15.82,0,28.05,10.99,28.05,28.87C1371.06,440.11,1358.63,451.2,1342.81,451.2z M1342.81,444.94c10.58,0,20.86-7.19,20.86-22.6
		c0-15.41-10.07-22.61-20.75-22.61s-20.65,7.19-20.65,22.61C1322.26,437.74,1332.12,444.94,1342.81,444.94z"/>
	<path class="st7" d="M1398.6,450.38h-7.19v-56.1h7.19v9.97c3.08-6.88,9.55-10.99,19.21-10.99v7.5h-1.95
		c-9.35,0-17.26,4.21-17.26,18.29V450.38z"/>
	<path class="st7" d="M1435.79,374.35h7.19v45l22.6-25.07h10.07l-26.61,27.95l26.82,28.15h-9.76l-23.12-25.17v25.17h-7.19V374.35z"
		/>
</g>
<g>
	<g class="st3">
		<path class="st4" d="M659.06,434.64h-31.23l-5.75,15.92h-9.86l25.89-71.2h10.79l25.79,71.2h-9.86L659.06,434.64z M643.44,390.87
			l-12.95,36.16h25.89L643.44,390.87z"/>
		<path class="st4" d="M716.39,393.34c10.27,0,17.67,5.14,20.96,11.2v-10.27h9.45v57.54c0,15.51-10.38,26.51-26.92,26.51
			c-14.8,0-25.38-7.5-27.23-19.52h9.25c2.05,6.78,8.73,11.41,17.98,11.41c9.97,0,17.47-6.37,17.47-18.39v-11.82
			c-3.39,6.06-10.68,11.51-20.96,11.51c-15.1,0-26.71-11.82-26.71-29.28C689.68,404.64,701.29,393.34,716.39,393.34z M718.24,401.45
			c-10.27,0-19.01,7.5-19.01,20.75c0,13.26,8.73,21.06,19.01,21.06c10.27,0,19.11-7.7,19.11-20.96
			C737.35,409.26,728.51,401.45,718.24,401.45z"/>
		<path class="st4" d="M768.28,378.75c0-3.59,2.77-6.37,6.37-6.37c3.39,0,6.17,2.77,6.17,6.37c0,3.6-2.77,6.37-6.17,6.37
			C771.05,385.12,768.28,382.34,768.28,378.75z M769.82,394.26h9.35v56.3h-9.35V394.26z"/>
		<path class="st4" d="M802.28,374.53h9.35v76.03h-9.35V374.53z"/>
		<path class="st4" d="M859.1,451.49c-16.03,0-27.84-11.3-27.84-29.18c0-17.78,11.41-28.98,27.84-28.98
			c16.34,0,27.02,11.51,27.02,26.92c0,2.06-0.1,3.7-0.31,5.65h-45c0.72,11.41,8.73,17.67,18.29,17.67c8.43,0,13.77-4.32,15.82-10.38
			h10.07C882.12,443.48,873.07,451.49,859.1,451.49z M840.91,418.3h35.55c0.1-10.99-8.12-17.06-17.77-17.06
			C849.55,401.25,841.94,407.31,840.91,418.3z"/>
		<path class="st4" d="M979.11,394.26h9.66l-33.91,82.81h-9.66l11.1-27.12l-22.71-55.69h10.38l17.67,45.62L979.11,394.26z"/>
		<path class="st4" d="M1029.86,451.49c-15.92,0-28.05-11.3-28.05-29.18c0-17.78,12.54-28.98,28.46-28.98
			c16.03,0,28.46,11.2,28.46,28.98C1058.73,440.19,1045.89,451.49,1029.86,451.49z M1029.86,443.27c9.76,0,19.32-6.68,19.32-20.96
			c0-14.18-9.35-20.86-19.01-20.86c-9.86,0-18.8,6.68-18.8,20.86C1011.37,436.59,1020.1,443.27,1029.86,443.27z"/>
		<path class="st4" d="M1128.19,450.56h-9.35v-8.32c-3.6,5.86-10.48,9.14-17.98,9.14c-12.95,0-23.12-8.01-23.12-24.15v-32.98h9.25
			v31.75c0,11.41,6.27,17.26,15.72,17.26c9.66,0,16.13-5.96,16.13-18.08v-30.93h9.35V450.56z"/>
		<path class="st4" d="M1160.56,450.56h-9.35v-56.3h9.35v9.14c3.19-6.27,9.25-10.17,18.19-10.17v9.66h-2.47
			c-8.94,0-15.72,4.01-15.72,17.06V450.56z"/>
		<path class="st4" d="M1224.67,394.26h9.55l12.95,47.26l13.97-47.26h9.55l13.66,47.36l12.74-47.36h9.25l-17.57,56.3h-9.66
			l-13.56-44.69L1252,450.56h-9.66L1224.67,394.26z"/>
		<path class="st4" d="M1347.35,451.49c-15.92,0-28.05-11.3-28.05-29.18c0-17.78,12.54-28.98,28.46-28.98
			c16.03,0,28.46,11.2,28.46,28.98C1376.22,440.19,1363.38,451.49,1347.35,451.49z M1347.35,443.27c9.76,0,19.31-6.68,19.31-20.96
			c0-14.18-9.35-20.86-19.01-20.86c-9.86,0-18.8,6.68-18.8,20.86C1328.85,436.59,1337.59,443.27,1347.35,443.27z"/>
		<path class="st4" d="M1405.09,450.56h-9.35v-56.3h9.35v9.14c3.19-6.27,9.25-10.17,18.19-10.17v9.66h-2.47
			c-8.94,0-15.72,4.01-15.72,17.06V450.56z"/>
		<path class="st4" d="M1441.26,374.53h9.35v44.69l21.68-24.97h13.05l-26.51,28.05l26.61,28.25h-12.74l-22.09-24.86v24.86h-9.35
			V374.53z"/>
	</g>
	<g>
		<path class="st7" d="M606.13,278.85"/>
		<path class="st7" d="M606.13,80.54"/>
		<line class="st7" x1="675.04" y1="44.47" x2="675.04" y2="199.33"/>
		<g>
			<path class="st7" d="M805.03,57.28l-16.17-12.8c-14.16-8.85-30.9-13.95-48.82-13.95H606.13v13.95
				c14.05,15.74,21.86,36.07,21.97,57.17l0.12,25.71v151.5l-0.47,2.63c-1.36,7.59-3.93,14.85-7.59,21.53
				c-3.66,6.67-8.38,12.77-14.04,18.01v10.17h93.63v-11.91l-0.17-0.19c-5.49-5.67-10.26-11.96-14.22-18.71
				c-3.98-6.75-7.16-13.98-9.44-21.53v-63.68h64.13c6.39,0,12.63-0.65,18.66-1.89c12.04-2.47,23.23-7.29,33.06-13.95l13.26-10.91
				c16.88-16.72,27.34-39.92,27.34-65.56v-0.01C832.37,97.19,821.91,74,805.03,57.28z M805.03,121.9c0,21.38-8.66,40.73-22.68,54.75
				c-14.01,14.01-33.37,22.68-54.75,22.68h-52.56V44.47h55.29c41.25,0,74.7,33.44,74.7,74.7V121.9z"/>
		</g>
		<path class="st7" d="M1346.44,316.07c-3.95,0-7.74-1.67-10.38-4.61l-35.09-38.76l-33.58-37.11l-8.08-8.92
			c-4.67-5.17-10.9-8.69-17.75-10.04l-7.39-1.46h4c6.39,0,12.63-0.65,18.66-1.89c12.04-2.47,23.23-7.29,33.06-13.95l13.26-10.91
			c16.88-16.72,27.34-39.92,27.34-65.56v-0.01c0-25.64-10.46-48.84-27.34-65.56l-16.16-12.8c-14.16-8.85-30.9-13.95-48.82-13.95
			h-133.92v13.95c14.05,15.74,21.86,36.07,21.97,57.17l0.12,25.71v71.36H990.48c-9.29,0-16.63,7.88-15.97,17.15l1.61,22.68
			c0.25,3.34,3.03,5.91,6.38,5.88c2.13-0.02,4.23-0.42,6.19-1.15c1.97-0.74,3.82-1.82,5.44-3.2c5.08-4.33,10.32-7.84,15.71-11.12
			c5.39-3.3,10.94-6.38,16.62-9.89c2.06-1.26,4.26-2.24,6.57-2.88c2.3-0.65,4.68-0.99,7.09-0.99h86.23v63.66l-0.47,2.63
			c-1.36,7.59-3.93,14.85-7.59,21.53c-3.66,6.67-8.38,12.77-14.04,18.01v10.17h93.63v-11.91l-0.17-0.19
			c-5.49-5.67-10.26-11.96-14.22-18.71c-3.98-6.75-7.16-13.98-9.44-21.53v-63.68h28.94l4.02,4.5l60.38,67.65v7.87
			c0,0.61,0.49,1.1,1.1,1.1s1.09,0.48,1.1,1.09l0.32,17.26c0.01,0.62-0.48,1.12-1.1,1.12h-0.32c-0.61,0.01-1.1,0.49-1.1,1.1v14.32
			h81.27v-15.13H1346.44z M1173.17,199.33V44.47h55.29c41.25,0,74.7,33.44,74.7,74.7v2.73c0,21.38-8.66,40.73-22.68,54.75
			c-14.01,14.01-33.37,22.68-54.75,22.68H1173.17z"/>
		<path class="st7" d="M1452.46,127.35v151.5l0.47,2.63c1.36,7.59,3.93,14.85,7.59,21.53c3.66,6.67,8.38,12.77,14.04,18.01v10.17
			h-92.89v-10.17c5.66-5.24,10.38-11.33,14.04-18.01c3.66-6.67,6.23-13.94,7.59-21.53l0.47-2.63v-151.5l-0.12-25.71
			c-0.11-21.1-7.92-41.43-21.97-57.17V30.52h92.89v13.95c-14.05,15.74-21.86,36.07-21.97,57.17L1452.46,127.35z"/>
		<rect x="1174.05" y="215.17" class="st7" width="15.62" height="0.02"/>
		<path class="st7" d="M1033.79,215.81"/>
		<path class="st7" d="M988.15,51.39h-51.26l0.15,260.47H992l11.73-3.57c21.59-6.57,41.72-17.24,59.3-31.4h18.54v54.3H867.26v-10.17
			c5.66-5.24,10.38-11.33,14.04-18.01c3.66-6.67,6.23-13.94,7.59-21.53l0.47-2.63v-151.5l-0.12-25.71
			c-0.11-21.1-7.92-41.43-21.97-57.17V30.52h215.4v54.32h-19.19l-0.59-0.49c-20.39-16.65-44.73-27.76-70.67-32.24L988.15,51.39z"/>
		<path class="st7" d="M1081.57,86.36"/>
		<path class="st7" d="M1081.57,276.89"/>
		<path class="st7" d="M1061.94,276.89"/>
	</g>
</g>
<g>
	<g>
		<circle class="st8" cx="29.33" cy="-1270.86" r="40.17"/>
		<line class="st8" x1="1.76" y1="-1244.41" x2="-62.06" y2="-1182.72"/>
	</g>
	<circle class="st8" cx="-124.21" cy="-1117.32" r="36.06"/>
	<g>
		<circle class="st8" cx="83.58" cy="-927.2" r="59.05"/>
		<line class="st8" x1="34.1" y1="-959.44" x2="-69.15" y2="-1063.36"/>
	</g>
	<g>
		<circle class="st8" cx="-260.12" cy="-998.23" r="40.17"/>
		<line class="st8" x1="-232.55" y1="-1024.68" x2="-187.94" y2="-1062.13"/>
	</g>
	<g>
		<circle class="st8" cx="-243.54" cy="-1247.34" r="25.5"/>
		<line class="st8" x1="-227.26" y1="-1230.73" x2="-180.47" y2="-1182.72"/>
	</g>
</g>
<g>
	<path class="st1" d="M345.78-910.67h-32.67l-6.27,17.06h-7.6l26.2-70.89h8.12l26.1,70.89h-7.6L345.78-910.67z M329.45-955.47
		l-14.18,38.84h28.36L329.45-955.47z"/>
	<path class="st1" d="M401.88-950.54c11.1,0,19.01,5.96,22.19,13.05v-12.23h7.19v57.54c0,15.72-10.79,26.1-26.2,26.1
		c-14.49,0-24.55-7.4-26.82-19.11h7.09c2.36,7.6,9.45,12.84,19.73,12.84c10.68,0,19.01-7.09,19.01-19.83v-13.87
		c-3.29,7.19-11.1,13.25-22.19,13.25c-15.41,0-26.82-11.41-26.82-28.97C375.07-939.34,386.47-950.54,401.88-950.54z M403.22-944.27
		c-11.82,0-20.86,8.22-20.86,22.5c0,14.18,9.04,22.71,20.86,22.71c11.51,0,20.86-8.63,20.86-22.6
		C424.08-935.64,414.73-944.27,403.22-944.27z"/>
	<path class="st1" d="M453.26-965.64c0-3.08,2.36-5.24,5.24-5.24c2.88,0,5.24,2.16,5.24,5.24c0,3.08-2.36,5.34-5.24,5.34
		C455.62-960.3,453.26-962.56,453.26-965.64z M454.9-949.72h7.19v56.1h-7.19V-949.72z"/>
	<path class="st1" d="M485.62-969.65h7.19v76.03h-7.19V-969.65z"/>
	<path class="st1" d="M540.59-892.8c-15.92,0-27.53-11.1-27.53-28.87c0-17.88,11.41-28.87,27.53-28.87
		c16.44,0,26.51,11.71,26.51,25.99c0,2.26,0,3.7-0.21,5.65h-46.54c0.62,13.15,9.76,20.03,20.24,20.03c9.55,0,16.03-5.03,18.08-12.54
		h7.6C563.7-900.81,554.66-892.8,540.59-892.8z M520.35-924.75h39.45c0.31-13.05-9.14-19.62-19.52-19.62
		C530.11-944.37,521.17-937.8,520.35-924.75z"/>
	<path class="st1" d="M661.62-949.72h7.4l-33.29,82.5h-7.5l10.89-26.71l-23.01-55.79h7.91l19.11,47.88L661.62-949.72z"/>
	<path class="st1" d="M710.53-892.8c-15.82,0-27.84-11.1-27.84-28.87c0-17.88,12.33-28.87,28.05-28.87
		c15.82,0,28.05,10.99,28.05,28.87C738.78-903.89,726.35-892.8,710.53-892.8z M710.53-899.06c10.58,0,20.86-7.19,20.86-22.6
		c0-15.41-10.07-22.61-20.75-22.61s-20.65,7.19-20.65,22.61C689.98-906.26,699.84-899.06,710.53-899.06z"/>
	<path class="st1" d="M807.72-893.62h-7.19v-9.86c-3.39,7.09-10.79,10.79-19.11,10.79c-12.74,0-22.81-7.81-22.81-24.25v-32.77h7.09
		v31.95c0,12.43,6.78,18.8,17.06,18.8c10.48,0,17.78-6.58,17.78-20.24v-30.52h7.19V-893.62z"/>
	<path class="st1" d="M838.55-893.62h-7.19v-56.1h7.19v9.97c3.08-6.88,9.55-10.99,19.21-10.99v7.5h-1.95
		c-9.35,0-17.26,4.21-17.26,18.29V-893.62z"/>
	<path class="st1" d="M904.41-949.72h7.3l13.97,48.8l15.72-48.8h7.19l15.51,48.91l13.87-48.91h7.09l-17.57,56.1h-7.19l-15.51-47.06
		l-15.51,47.06h-7.29L904.41-949.72z"/>
	<path class="st1" d="M1026.57-892.8c-15.82,0-27.84-11.1-27.84-28.87c0-17.88,12.33-28.87,28.05-28.87
		c15.82,0,28.05,10.99,28.05,28.87C1054.82-903.89,1042.39-892.8,1026.57-892.8z M1026.57-899.06c10.58,0,20.86-7.19,20.86-22.6
		c0-15.41-10.07-22.61-20.75-22.61c-10.68,0-20.65,7.19-20.65,22.61C1006.02-906.26,1015.89-899.06,1026.57-899.06z"/>
	<path class="st1" d="M1082.36-893.62h-7.19v-56.1h7.19v9.97c3.08-6.88,9.55-10.99,19.21-10.99v7.5h-1.95
		c-9.35,0-17.26,4.21-17.26,18.29V-893.62z"/>
	<path class="st1" d="M1119.56-969.65h7.19v45l22.6-25.07h10.07l-26.61,27.95l26.82,28.15h-9.76l-23.12-25.17v25.17h-7.19V-969.65z"
		/>
</g>
<g>
	<g class="st3">
		<path class="st4" d="M342.82-909.36h-31.23l-5.75,15.92h-9.86l25.89-71.2h10.79l25.79,71.2h-9.86L342.82-909.36z M327.21-953.13
			l-12.95,36.16h25.89L327.21-953.13z"/>
		<path class="st4" d="M400.15-950.66c10.27,0,17.67,5.14,20.96,11.2v-10.27h9.45v57.54c0,15.51-10.38,26.51-26.92,26.51
			c-14.8,0-25.38-7.5-27.23-19.52h9.25c2.05,6.78,8.73,11.41,17.98,11.41c9.97,0,17.47-6.37,17.47-18.39v-11.82
			c-3.39,6.06-10.68,11.51-20.96,11.51c-15.1,0-26.71-11.82-26.71-29.28C373.44-939.36,385.05-950.66,400.15-950.66z M402-942.55
			c-10.27,0-19.01,7.5-19.01,20.75c0,13.26,8.73,21.06,19.01,21.06c10.27,0,19.11-7.7,19.11-20.96
			C421.11-934.74,412.28-942.55,402-942.55z"/>
		<path class="st4" d="M452.04-965.25c0-3.59,2.77-6.37,6.37-6.37c3.39,0,6.17,2.77,6.17,6.37c0,3.6-2.77,6.37-6.17,6.37
			C454.82-958.88,452.04-961.66,452.04-965.25z M453.58-949.74h9.35v56.3h-9.35V-949.74z"/>
		<path class="st4" d="M486.05-969.47h9.35v76.03h-9.35V-969.47z"/>
		<path class="st4" d="M542.87-892.51c-16.03,0-27.84-11.3-27.84-29.18c0-17.78,11.41-28.98,27.84-28.98
			c16.34,0,27.02,11.51,27.02,26.92c0,2.06-0.1,3.7-0.31,5.65h-45c0.72,11.41,8.73,17.67,18.29,17.67c8.43,0,13.77-4.32,15.82-10.38
			h10.07C565.88-900.52,556.84-892.51,542.87-892.51z M524.68-925.7h35.55c0.1-10.99-8.12-17.06-17.77-17.06
			C533.31-942.75,525.71-936.69,524.68-925.7z"/>
		<path class="st4" d="M662.87-949.74h9.66l-33.91,82.81h-9.66l11.1-27.12l-22.71-55.69h10.38l17.67,45.62L662.87-949.74z"/>
		<path class="st4" d="M713.63-892.51c-15.92,0-28.05-11.3-28.05-29.18c0-17.78,12.54-28.98,28.46-28.98
			c16.03,0,28.46,11.2,28.46,28.98C742.5-903.81,729.66-892.51,713.63-892.51z M713.63-900.73c9.76,0,19.32-6.68,19.32-20.96
			c0-14.18-9.35-20.86-19.01-20.86c-9.86,0-18.8,6.68-18.8,20.86C695.13-907.41,703.87-900.73,713.63-900.73z"/>
		<path class="st4" d="M811.96-893.44h-9.35v-8.32c-3.6,5.86-10.48,9.14-17.98,9.14c-12.95,0-23.12-8.01-23.12-24.15v-32.98h9.25
			v31.75c0,11.41,6.27,17.26,15.72,17.26c9.66,0,16.13-5.96,16.13-18.08v-30.93h9.35V-893.44z"/>
		<path class="st4" d="M844.32-893.44h-9.35v-56.3h9.35v9.14c3.19-6.27,9.25-10.17,18.19-10.17v9.66h-2.47
			c-8.94,0-15.72,4.01-15.72,17.06V-893.44z"/>
		<path class="st4" d="M908.43-949.74h9.55l12.95,47.26l13.97-47.26h9.55l13.66,47.36l12.74-47.36h9.25l-17.57,56.3h-9.66
			l-13.56-44.69l-13.56,44.69h-9.66L908.43-949.74z"/>
		<path class="st4" d="M1031.11-892.51c-15.92,0-28.05-11.3-28.05-29.18c0-17.78,12.54-28.98,28.46-28.98
			c16.03,0,28.46,11.2,28.46,28.98C1059.98-903.81,1047.14-892.51,1031.11-892.51z M1031.11-900.73c9.76,0,19.31-6.68,19.31-20.96
			c0-14.18-9.35-20.86-19.01-20.86c-9.86,0-18.8,6.68-18.8,20.86C1012.62-907.41,1021.35-900.73,1031.11-900.73z"/>
		<path class="st4" d="M1088.86-893.44h-9.35v-56.3h9.35v9.14c3.19-6.27,9.25-10.17,18.19-10.17v9.66h-2.47
			c-8.94,0-15.72,4.01-15.72,17.06V-893.44z"/>
		<path class="st4" d="M1125.02-969.47h9.35v44.69l21.68-24.97h13.05l-26.51,28.05l26.61,28.25h-12.74l-22.09-24.86v24.86h-9.35
			V-969.47z"/>
	</g>
	<g>
		<path class="st5" d="M289.9-1065.15"/>
		<path class="st5" d="M289.9-1263.46"/>
		<line class="st5" x1="358.81" y1="-1299.53" x2="358.81" y2="-1144.67"/>
		<g>
			<path class="st5" d="M488.8-1286.72l-16.17-12.8c-14.16-8.85-30.9-13.95-48.82-13.95H289.9v13.95
				c14.05,15.74,21.86,36.07,21.97,57.17l0.12,25.71v151.5l-0.47,2.63c-1.36,7.59-3.93,14.85-7.59,21.53s-8.38,12.77-14.04,18.01
				v10.17h93.63v-11.91l-0.17-0.19c-5.49-5.67-10.26-11.96-14.22-18.71c-3.98-6.75-7.16-13.98-9.44-21.53v-63.68h64.13
				c6.39,0,12.63-0.65,18.66-1.89c12.04-2.47,23.23-7.29,33.06-13.95l13.26-10.91c16.88-16.72,27.34-39.92,27.34-65.56v-0.01
				C516.13-1246.81,505.68-1270,488.8-1286.72z M488.8-1222.1c0,21.38-8.66,40.73-22.68,54.75c-14.01,14.01-33.37,22.68-54.75,22.68
				h-52.56v-154.85h55.29c41.25,0,74.7,33.44,74.7,74.7V-1222.1z"/>
		</g>
		<path class="st5" d="M1030.2-1027.93c-3.95,0-7.74-1.67-10.38-4.61l-35.09-38.76l-33.58-37.11l-8.08-8.92
			c-4.67-5.17-10.9-8.69-17.75-10.04l-7.39-1.46h4c6.39,0,12.63-0.65,18.66-1.89c12.04-2.47,23.23-7.29,33.06-13.95l13.26-10.91
			c16.88-16.72,27.34-39.92,27.34-65.56v-0.01c0-25.64-10.46-48.84-27.34-65.56l-16.16-12.8c-14.16-8.85-30.9-13.95-48.82-13.95
			H788.02v13.95c14.05,15.74,21.86,36.07,21.97,57.17l0.12,25.71v71.36H674.25c-9.29,0-16.63,7.88-15.97,17.15l1.61,22.68
			c0.25,3.34,3.03,5.91,6.38,5.88c2.13-0.02,4.23-0.42,6.19-1.15c1.97-0.74,3.82-1.82,5.44-3.2c5.08-4.33,10.32-7.84,15.71-11.12
			c5.39-3.3,10.94-6.38,16.62-9.89c2.06-1.26,4.26-2.24,6.57-2.88c2.3-0.65,4.68-0.99,7.09-0.99h86.23v63.66l-0.47,2.63
			c-1.36,7.59-3.93,14.85-7.59,21.53s-8.38,12.77-14.04,18.01v10.17h93.63v-11.91l-0.17-0.19c-5.49-5.67-10.26-11.96-14.22-18.71
			c-3.98-6.75-7.16-13.98-9.44-21.53v-63.68h28.94l4.02,4.5l60.38,67.65v7.87c0,0.61,0.49,1.1,1.1,1.1c0.61,0,1.09,0.48,1.1,1.09
			l0.32,17.26c0.01,0.62-0.48,1.12-1.1,1.12h-0.32c-0.61,0.01-1.1,0.49-1.1,1.1v14.32h81.27v-15.13H1030.2z M856.93-1144.67v-154.85
			h55.29c41.25,0,74.7,33.44,74.7,74.7v2.73c0,21.38-8.66,40.73-22.68,54.75c-14.01,14.01-33.37,22.68-54.75,22.68H856.93z"/>
		<path class="st5" d="M1136.22-1216.65v151.5l0.47,2.63c1.36,7.59,3.93,14.85,7.59,21.53c3.66,6.67,8.38,12.77,14.04,18.01v10.17
			h-92.89v-10.17c5.66-5.24,10.38-11.33,14.04-18.01s6.23-13.94,7.59-21.53l0.47-2.63v-151.5l-0.12-25.71
			c-0.11-21.1-7.92-41.43-21.97-57.17v-13.95h92.89v13.95c-14.05,15.74-21.86,36.07-21.97,57.17L1136.22-1216.65z"/>
		<rect x="857.81" y="-1128.83" class="st5" width="15.62" height="0.02"/>
		<path class="st5" d="M717.55-1128.19"/>
		<path class="st5" d="M671.91-1292.61h-51.26l0.15,260.47h54.97l11.73-3.57c21.59-6.57,41.72-17.24,59.3-31.4h18.54v54.3H551.02
			v-10.17c5.66-5.24,10.38-11.33,14.04-18.01c3.66-6.67,6.23-13.94,7.59-21.53l0.47-2.63v-151.5l-0.12-25.71
			c-0.11-21.1-7.92-41.43-21.97-57.17v-13.95h215.4v54.32h-19.19l-0.59-0.49c-20.39-16.65-44.73-27.76-70.67-32.24L671.91-1292.61z"
			/>
		<path class="st5" d="M765.33-1257.64"/>
		<path class="st5" d="M765.33-1067.11"/>
		<path class="st5" d="M745.71-1067.11"/>
	</g>
</g>
<g>
	<g>
		<g>
			<path class="st9" d="M-2680.84-165.93c16.16,0,29.3,13.14,29.3,29.3s-13.14,29.3-29.3,29.3s-29.3-13.14-29.3-29.3
				S-2697-165.93-2680.84-165.93 M-2680.84-180.93c-24.47,0-44.3,19.83-44.3,44.3s19.83,44.3,44.3,44.3s44.3-19.83,44.3-44.3
				S-2656.37-180.93-2680.84-180.93L-2680.84-180.93z"/>
		</g>
		<line class="st10" x1="-2711.24" y1="-107.47" x2="-2781.63" y2="-39.43"/>
	</g>
	<g>
		<path class="st9" d="M-2850.18,7.93c13.66,0,24.78,11.11,24.78,24.78s-11.11,24.78-24.78,24.78s-24.78-11.11-24.78-24.78
			S-2863.84,7.93-2850.18,7.93 M-2850.18-7.07c-21.97,0-39.78,17.81-39.78,39.78s17.81,39.78,39.78,39.78s39.78-17.81,39.78-39.78
			S-2828.21-7.07-2850.18-7.07L-2850.18-7.07z"/>
	</g>
	<g>
		<g>
			<path class="st9" d="M-2621.01,192.26c27.64,0,50.13,22.49,50.13,50.13s-22.49,50.13-50.13,50.13s-50.13-22.49-50.13-50.13
				S-2648.65,192.26-2621.01,192.26 M-2621.01,177.26c-35.97,0-65.13,29.16-65.13,65.13s29.16,65.13,65.13,65.13
				c35.97,0,65.13-29.16,65.13-65.13S-2585.04,177.26-2621.01,177.26L-2621.01,177.26z"/>
		</g>
		<line class="st10" x1="-2675.58" y1="206.84" x2="-2789.45" y2="92.22"/>
	</g>
	<g>
		<g>
			<path class="st9" d="M-3000.07,134.75c16.16,0,29.3,13.14,29.3,29.3s-13.14,29.3-29.3,29.3c-16.16,0-29.3-13.14-29.3-29.3
				S-3016.23,134.75-3000.07,134.75 M-3000.07,119.75c-24.47,0-44.3,19.83-44.3,44.3c0,24.47,19.83,44.3,44.3,44.3
				c24.47,0,44.3-19.83,44.3-44.3C-2955.77,139.58-2975.61,119.75-3000.07,119.75L-3000.07,119.75z"/>
		</g>
		<line class="st10" x1="-2969.67" y1="134.88" x2="-2920.47" y2="93.58"/>
	</g>
	<g>
		<g>
			<path class="st9" d="M-2981.81-123.82c0.2,0,0.39,0,0.59,0.01c3.5,0.15,6.73,1.66,9.1,4.24s3.59,5.94,3.44,9.44
				c-0.31,7.04-6.05,12.55-13.09,12.55c-0.2,0-0.39,0-0.59-0.01c-3.5-0.15-6.73-1.66-9.1-4.24s-3.59-5.94-3.44-9.44
				C-2994.59-118.3-2988.84-123.81-2981.81-123.82L-2981.81-123.82 M-2981.81-138.82c-14.97,0-27.42,11.8-28.07,26.9
				c-0.67,15.52,11.36,28.64,26.88,29.32c0.42,0.02,0.83,0.03,1.24,0.03c14.97,0,27.42-11.8,28.07-26.9
				c0.67-15.52-11.36-28.64-26.88-29.32C-2980.98-138.81-2981.4-138.82-2981.81-138.82L-2981.81-138.82z"/>
		</g>
		<line class="st10" x1="-2963.83" y1="-92.38" x2="-2912.23" y2="-39.43"/>
	</g>
</g>
<g>
	<path class="st1" d="M-1395.66-79.54h-36.03l-6.91,18.81h-8.39l28.9-78.19h8.95l28.78,78.19h-8.39L-1395.66-79.54z
		 M-1413.68-128.95l-15.64,42.83h31.27L-1413.68-128.95z"/>
	<path class="st1" d="M-1333.79-123.51c12.24,0,20.96,6.57,24.48,14.39v-13.49h7.93v63.46c0,17.34-11.9,28.78-28.9,28.78
		c-15.98,0-27.08-8.16-29.58-21.08h7.82c2.61,8.39,10.42,14.16,21.76,14.16c11.78,0,20.96-7.82,20.96-21.87v-15.3
		c-3.63,7.93-12.24,14.62-24.48,14.62c-17,0-29.58-12.58-29.58-31.95C-1363.37-111.16-1350.79-123.51-1333.79-123.51z
		 M-1332.32-116.6c-13.03,0-23,9.07-23,24.82c0,15.64,9.97,25.04,23,25.04c12.69,0,23-9.52,23-24.93
		C-1309.32-107.08-1319.63-116.6-1332.32-116.6z"/>
	<path class="st1" d="M-1277.13-140.17c0-3.4,2.61-5.78,5.78-5.78s5.78,2.38,5.78,5.78c0,3.4-2.61,5.89-5.78,5.89
		S-1277.13-136.76-1277.13-140.17z M-1275.32-122.6h7.93v61.87h-7.93V-122.6z"/>
	<path class="st1" d="M-1241.44-144.58h7.93v83.85h-7.93V-144.58z"/>
	<path class="st1" d="M-1180.81-59.82c-17.56,0-30.37-12.24-30.37-31.84c0-19.72,12.58-31.84,30.37-31.84
		c18.13,0,29.23,12.92,29.23,28.67c0,2.49,0,4.08-0.23,6.23h-51.33c0.68,14.5,10.76,22.1,22.32,22.1c10.54,0,17.68-5.55,19.94-13.83
		h8.38C-1155.32-68.66-1165.29-59.82-1180.81-59.82z M-1203.14-95.07h43.51c0.34-14.39-10.09-21.64-21.53-21.64
		C-1192.37-116.71-1202.23-109.46-1203.14-95.07z"/>
	<path class="st1" d="M-1047.33-122.6h8.16l-36.71,90.99h-8.27l12.01-29.46l-25.38-61.53h8.73l21.08,52.81L-1047.33-122.6z"/>
	<path class="st1" d="M-993.39-59.82c-17.45,0-30.71-12.24-30.71-31.84c0-19.72,13.6-31.84,30.93-31.84
		c17.45,0,30.94,12.12,30.94,31.84C-962.22-72.06-975.94-59.82-993.39-59.82z M-993.39-66.74c11.67,0,23-7.93,23-24.93
		c0-17-11.11-24.93-22.89-24.93c-11.78,0-22.77,7.93-22.77,24.93C-1016.05-74.67-1005.17-66.74-993.39-66.74z"/>
	<path class="st1" d="M-886.19-60.73h-7.93v-10.88c-3.74,7.82-11.9,11.9-21.08,11.9c-14.05,0-25.16-8.61-25.16-26.74v-36.15h7.82
		v35.24c0,13.71,7.48,20.74,18.81,20.74c11.56,0,19.6-7.25,19.6-22.32v-33.66h7.93V-60.73z"/>
	<path class="st1" d="M-852.19-60.73h-7.93v-61.87h7.93v10.99c3.4-7.59,10.54-12.12,21.19-12.12v8.27h-2.15
		c-10.31,0-19.04,4.65-19.04,20.17V-60.73z"/>
	<path class="st1" d="M-779.55-122.6h8.05l15.41,53.82l17.34-53.82h7.93l17.11,53.94l15.3-53.94h7.82l-19.38,61.87h-7.93
		l-17.11-51.9l-17.11,51.9h-8.04L-779.55-122.6z"/>
	<path class="st1" d="M-644.82-59.82c-17.45,0-30.71-12.24-30.71-31.84c0-19.72,13.6-31.84,30.93-31.84
		c17.45,0,30.93,12.12,30.93,31.84C-613.66-72.06-627.37-59.82-644.82-59.82z M-644.82-66.74c11.67,0,23-7.93,23-24.93
		c0-17-11.11-24.93-22.89-24.93s-22.78,7.93-22.78,24.93C-667.48-74.67-656.6-66.74-644.82-66.74z"/>
	<path class="st1" d="M-583.28-60.73h-7.93v-61.87h7.93v10.99c3.4-7.59,10.54-12.12,21.19-12.12v8.27h-2.15
		c-10.31,0-19.04,4.65-19.04,20.17V-60.73z"/>
	<path class="st1" d="M-542.26-144.58h7.93v49.63l24.93-27.65h11.11l-29.35,30.82l29.58,31.05h-10.77l-25.49-27.76v27.76h-7.93
		V-144.58z"/>
</g>
<g>
	<g class="st3">
		<path class="st4" d="M-1398.93-78.09h-34.45l-6.35,17.56h-10.88l28.56-78.53h11.9l28.44,78.53h-10.88L-1398.93-78.09z
			 M-1416.15-126.36l-14.28,39.89h28.55L-1416.15-126.36z"/>
		<path class="st4" d="M-1335.7-123.65c11.33,0,19.49,5.67,23.12,12.35v-11.33h10.43v63.46c0,17.11-11.45,29.23-29.69,29.23
			c-16.32,0-27.99-8.27-30.03-21.53h10.2c2.27,7.48,9.63,12.58,19.83,12.58c10.99,0,19.26-7.03,19.26-20.28V-72.2
			c-3.74,6.69-11.78,12.69-23.12,12.69c-16.66,0-29.46-13.03-29.46-32.3C-1365.16-111.18-1352.36-123.65-1335.7-123.65z
			 M-1333.66-114.69c-11.33,0-20.96,8.27-20.96,22.89c0,14.62,9.63,23.23,20.96,23.23c11.33,0,21.08-8.5,21.08-23.11
			C-1312.58-106.08-1322.33-114.69-1333.66-114.69z"/>
		<path class="st4" d="M-1278.47-139.74c0-3.96,3.06-7.02,7.02-7.02c3.74,0,6.8,3.06,6.8,7.02c0,3.97-3.06,7.03-6.8,7.03
			C-1275.41-132.71-1278.47-135.77-1278.47-139.74z M-1276.77-122.63h10.31v62.1h-10.31V-122.63z"/>
		<path class="st4" d="M-1240.96-144.38h10.31v83.85h-10.31V-144.38z"/>
		<path class="st4" d="M-1178.3-59.51c-17.68,0-30.71-12.47-30.71-32.18c0-19.6,12.58-31.96,30.71-31.96
			c18.02,0,29.8,12.69,29.8,29.69c0,2.27-0.11,4.08-0.34,6.23h-49.63c0.79,12.58,9.63,19.49,20.17,19.49
			c9.29,0,15.19-4.76,17.45-11.45h11.11C-1152.92-68.35-1162.89-59.51-1178.3-59.51z M-1198.36-96.11h39.21
			c0.12-12.12-8.95-18.81-19.6-18.81C-1188.84-114.92-1197.22-108.24-1198.36-96.11z"/>
		<path class="st4" d="M-1045.94-122.63h10.65l-37.39,91.33h-10.65l12.24-29.91l-25.04-61.42h11.45l19.49,50.31L-1045.94-122.63z"/>
		<path class="st4" d="M-989.97-59.51c-17.56,0-30.93-12.47-30.93-32.18c0-19.6,13.83-31.96,31.39-31.96
			c17.68,0,31.39,12.35,31.39,31.96C-958.12-71.97-972.29-59.51-989.97-59.51z M-989.97-68.58c10.77,0,21.3-7.37,21.3-23.11
			c0-15.64-10.31-23-20.96-23c-10.88,0-20.74,7.37-20.74,23C-1010.36-75.94-1000.73-68.58-989.97-68.58z"/>
		<path class="st4" d="M-881.52-60.53h-10.31v-9.18c-3.97,6.46-11.56,10.09-19.83,10.09c-14.28,0-25.5-8.84-25.5-26.63v-36.37h10.2
			v35.01c0,12.58,6.91,19.04,17.34,19.04c10.65,0,17.79-6.57,17.79-19.94v-34.11h10.31V-60.53z"/>
		<path class="st4" d="M-845.82-60.53h-10.31v-62.1h10.31v10.09c3.51-6.91,10.2-11.22,20.06-11.22v10.65h-2.72
			c-9.86,0-17.34,4.42-17.34,18.81V-60.53z"/>
		<path class="st4" d="M-775.11-122.63h10.54l14.28,52.13l15.41-52.13h10.54l15.07,52.24l14.05-52.24h10.2l-19.38,62.1h-10.65
			l-14.96-49.29l-14.96,49.29h-10.65L-775.11-122.63z"/>
		<path class="st4" d="M-639.81-59.51c-17.56,0-30.94-12.47-30.94-32.18c0-19.6,13.83-31.96,31.39-31.96
			c17.68,0,31.39,12.35,31.39,31.96C-607.97-71.97-622.13-59.51-639.81-59.51z M-639.81-68.58c10.76,0,21.3-7.37,21.3-23.11
			c0-15.64-10.31-23-20.96-23c-10.88,0-20.74,7.37-20.74,23C-660.2-75.94-650.57-68.58-639.81-68.58z"/>
		<path class="st4" d="M-576.12-60.53h-10.31v-62.1h10.31v10.09c3.51-6.91,10.2-11.22,20.06-11.22v10.65h-2.72
			c-9.86,0-17.34,4.42-17.34,18.81V-60.53z"/>
		<path class="st4" d="M-536.23-144.38h10.31v49.29l23.91-27.54h14.39l-29.24,30.94l29.35,31.16h-14.05l-24.36-27.42v27.42h-10.31
			V-144.38z"/>
	</g>
	<g>
		<path class="st5" d="M-1457.3-249.91"/>
		<path class="st5" d="M-1457.3-468.64"/>
		<line class="st5" x1="-1381.3" y1="-508.41" x2="-1381.3" y2="-337.62"/>
		<g>
			<path class="st5" d="M-1237.93-494.29l-17.83-14.12c-15.62-9.76-34.08-15.39-53.84-15.39h-147.7v15.39
				c15.5,17.37,24.11,39.79,24.23,63.05l0.14,28.35v167.1l-0.52,2.9c-1.5,8.37-4.33,16.38-8.37,23.74s-9.24,14.08-15.48,19.86v11.22
				h103.26v-13.14l-0.19-0.2c-6.05-6.26-11.31-13.19-15.69-20.64c-4.39-7.44-7.89-15.42-10.41-23.74v-70.24h70.73
				c7.05,0,13.93-0.72,20.58-2.09c13.28-2.73,25.62-8.04,36.46-15.39l14.63-12.04c18.62-18.44,30.15-44.03,30.15-72.31v-0.01
				C-1207.78-450.26-1219.32-475.85-1237.93-494.29z M-1237.93-423.02c0,23.58-9.55,44.93-25.01,60.38
				c-15.46,15.46-36.8,25.01-60.38,25.01h-57.97v-170.79h60.98c45.5,0,82.38,36.88,82.38,82.38V-423.02z"/>
		</g>
		<path class="st5" d="M-640.81-208.87c-4.36,0-8.53-1.84-11.45-5.08l-38.7-42.74l-37.03-40.93l-8.91-9.84
			c-5.15-5.7-12.02-9.58-19.57-11.07l-8.15-1.61h4.42c7.05,0,13.93-0.72,20.58-2.09c13.28-2.73,25.63-8.04,36.46-15.39l14.63-12.04
			c18.62-18.44,30.15-44.03,30.15-72.31v-0.01c0-28.28-11.53-53.87-30.15-72.31l-17.83-14.12c-15.62-9.76-34.08-15.39-53.84-15.39
			h-147.7v15.39c15.5,17.37,24.11,39.79,24.23,63.05l0.14,28.35v78.7h-149.85c-10.25,0-18.35,8.7-17.61,18.92l1.77,25.01
			c0.27,3.68,3.34,6.52,7.03,6.49c2.34-0.03,4.66-0.46,6.83-1.27c2.17-0.82,4.21-2,6-3.53c5.6-4.77,11.38-8.64,17.32-12.27
			c5.94-3.64,12.06-7.03,18.33-10.9c2.28-1.39,4.7-2.47,7.25-3.18c2.54-0.72,5.17-1.09,7.82-1.09h95.1v70.21l-0.52,2.9
			c-1.5,8.37-4.33,16.38-8.37,23.74s-9.24,14.08-15.48,19.86v11.22h103.26v-13.14l-0.19-0.2c-6.05-6.26-11.31-13.19-15.69-20.64
			c-4.39-7.44-7.89-15.42-10.41-23.74v-70.24h31.92l4.43,4.96l66.6,74.61v8.68c0,0.67,0.55,1.21,1.21,1.21c0.67,0,1.2,0.53,1.21,1.2
			l0.35,19.04c0.01,0.68-0.53,1.24-1.21,1.24h-0.35c-0.67,0.01-1.21,0.55-1.21,1.21v15.8h89.63v-16.68H-640.81z M-831.91-337.62
			v-170.79h60.98c45.5,0,82.38,36.88,82.38,82.38v3.01c0,23.58-9.55,44.93-25.01,60.38c-15.46,15.46-36.8,25.01-60.38,25.01H-831.91
			z"/>
		<path class="st5" d="M-523.88-417.01v167.1l0.52,2.9c1.5,8.37,4.33,16.38,8.37,23.74c4.03,7.36,9.24,14.08,15.48,19.86v11.22
			h-102.45v-11.22c6.24-5.78,11.45-12.5,15.48-19.86s6.87-15.38,8.37-23.74l0.52-2.9v-167.1l-0.14-28.35
			c-0.12-23.27-8.74-45.69-24.23-63.05v-15.39h102.45v15.39c-15.5,17.37-24.11,39.79-24.23,63.05L-523.88-417.01z"/>
		<rect x="-830.94" y="-320.15" class="st5" width="17.23" height="0.03"/>
		<path class="st5" d="M-985.64-319.45"/>
		<path class="st5" d="M-1035.97-500.78h-56.54l0.16,287.27h60.63l12.94-3.94c23.81-7.25,46.02-19.01,65.4-34.63h20.45v59.89
			h-236.36v-11.22c6.24-5.78,11.45-12.5,15.48-19.86s6.87-15.38,8.37-23.74l0.52-2.9v-167.1l-0.14-28.35
			c-0.12-23.27-8.74-45.69-24.23-63.05v-15.39h237.56v59.91h-21.17l-0.65-0.55c-22.49-18.36-49.33-30.61-77.94-35.56
			L-1035.97-500.78z"/>
		<path class="st5" d="M-932.94-462.22"/>
		<path class="st5" d="M-932.94-252.08"/>
		<path class="st5" d="M-954.58-252.08"/>
	</g>
</g>
</svg>
